<svg width="131" height="123" viewBox="0 0 131 123" fill="none" xmlns="http://www.w3.org/2000/svg">
<path d="M0.480007 42.2998V-0.000197887H27.84V4.5598H5.88001V18.5398H26.46V23.0998H5.88001V37.7398H27.84V42.2998H0.480007ZM46.3805 42.8398C43.7405 42.8398 41.4205 42.2198 39.4205 40.9798C37.4205 39.7398 35.8605 37.9398 34.7405 35.5798C33.6205 33.2198 33.0605 30.4198 33.0605 27.1798C33.0605 23.9398 33.6205 21.1598 34.7405 18.8398C35.8605 16.4798 37.4205 14.6798 39.4205 13.4398C41.4205 12.1998 43.7405 11.5798 46.3805 11.5798C49.0605 11.5798 51.3805 12.2598 53.3405 13.6198C55.3405 14.9398 56.6605 16.7598 57.3005 19.0798H56.5805L57.2405 12.1198H62.5205C62.4005 13.3198 62.2805 14.5198 62.1605 15.7198C62.0805 16.9198 62.0405 18.0998 62.0405 19.2598V42.2998H56.5805V35.3998H57.2405C56.6005 37.6798 55.2805 39.4998 53.2805 40.8598C51.3205 42.1798 49.0205 42.8398 46.3805 42.8398ZM47.6405 38.5198C50.3605 38.5198 52.5405 37.5598 54.1805 35.6398C55.8205 33.7198 56.6405 30.8998 56.6405 27.1798C56.6405 23.4598 55.8205 20.6598 54.1805 18.7798C52.5405 16.8998 50.3605 15.9598 47.6405 15.9598C44.9205 15.9598 42.7205 16.8998 41.0405 18.7798C39.4005 20.6598 38.5805 23.4598 38.5805 27.1798C38.5805 30.8998 39.4005 33.7198 41.0405 35.6398C42.6805 37.5598 44.8805 38.5198 47.6405 38.5198ZM82.4686 42.8398C79.3086 42.8398 76.9086 41.9798 75.2686 40.2598C73.6686 38.4998 72.8686 35.8598 72.8686 32.3398V16.3198H66.9886V12.1198H72.8686V4.0198L78.3286 2.5198V12.1198H86.8486V16.3198H78.3286V31.8598C78.3286 34.1798 78.7286 35.8398 79.5286 36.8398C80.3686 37.7998 81.5686 38.2798 83.1286 38.2798C83.9286 38.2798 84.6086 38.2198 85.1686 38.0998C85.7686 37.9398 86.3086 37.7598 86.7886 37.5598V42.0598C86.1886 42.2998 85.4886 42.4798 84.6886 42.5998C83.9286 42.7598 83.1886 42.8398 82.4686 42.8398Z" fill="#4A4A6A"/>
<path d="M7.42078e-06 109.3V66.9998H28.5V73.0598H7.44001V84.7598H27.12V90.8798H7.44001V103.18H28.5V109.3H7.42078e-06ZM46.4906 109.9C43.8506 109.9 41.5306 109.28 39.5306 108.04C37.5306 106.76 35.9706 104.94 34.8506 102.58C33.7306 100.22 33.1706 97.3998 33.1706 94.1198C33.1706 90.8398 33.7306 88.0398 34.8506 85.7198C35.9706 83.3598 37.5306 81.5598 39.5306 80.3198C41.5306 79.0398 43.8506 78.3998 46.4906 78.3998C49.0506 78.3998 51.2906 79.0398 53.2106 80.3198C55.1706 81.5598 56.4706 83.2398 57.1106 85.3598H56.4506L57.1106 78.9998H64.3106C64.1906 80.2398 64.0706 81.4998 63.9506 82.7798C63.8706 84.0598 63.8306 85.3198 63.8306 86.5598V109.3H56.3906L56.3306 103.06H57.0506C56.4106 105.14 55.1106 106.8 53.1506 108.04C51.1906 109.28 48.9706 109.9 46.4906 109.9ZM48.5906 104.14C50.9506 104.14 52.8506 103.32 54.2906 101.68C55.7306 99.9998 56.4506 97.4798 56.4506 94.1198C56.4506 90.7598 55.7306 88.2598 54.2906 86.6198C52.8506 84.9798 50.9506 84.1598 48.5906 84.1598C46.2306 84.1598 44.3306 84.9798 42.8906 86.6198C41.4506 88.2598 40.7306 90.7598 40.7306 94.1198C40.7306 97.4798 41.4306 99.9998 42.8306 101.68C44.2706 103.32 46.1906 104.14 48.5906 104.14ZM82.7977 109.9C80.1977 109.9 77.7977 109.6 75.5977 109C73.4377 108.36 71.6177 107.48 70.1377 106.36L72.2377 101.32C73.7577 102.36 75.4377 103.16 77.2777 103.72C79.1177 104.28 80.9777 104.56 82.8577 104.56C84.8577 104.56 86.3377 104.22 87.2977 103.54C88.2977 102.86 88.7977 101.94 88.7977 100.78C88.7977 99.8598 88.4777 99.1398 87.8377 98.6198C87.2377 98.0598 86.2577 97.6398 84.8977 97.3598L78.8977 96.2198C76.3377 95.6598 74.3777 94.6998 73.0177 93.3398C71.6977 91.9798 71.0377 90.1998 71.0377 87.9998C71.0377 86.1198 71.5377 84.4598 72.5377 83.0198C73.5777 81.5798 75.0377 80.4598 76.9177 79.6598C78.8377 78.8198 81.0777 78.3998 83.6377 78.3998C85.8777 78.3998 87.9777 78.6998 89.9377 79.2998C91.9377 79.8998 93.6177 80.7998 94.9777 81.9998L92.8177 86.8598C91.5777 85.8598 90.1577 85.0798 88.5577 84.5198C86.9577 83.9598 85.3977 83.6798 83.8777 83.6798C81.7977 83.6798 80.2777 84.0598 79.3177 84.8198C78.3577 85.5398 77.8777 86.4798 77.8777 87.6398C77.8777 88.5198 78.1577 89.2598 78.7177 89.8598C79.3177 90.4198 80.2377 90.8398 81.4777 91.1198L87.4777 92.2598C90.1577 92.7798 92.1777 93.6998 93.5377 95.0198C94.9377 96.2998 95.6377 98.0598 95.6377 100.3C95.6377 102.3 95.0977 104.02 94.0177 105.46C92.9377 106.9 91.4377 108 89.5177 108.76C87.5977 109.52 85.3577 109.9 82.7977 109.9ZM100.87 122.92L99.1303 116.98C101.01 116.58 102.59 116.12 103.87 115.6C105.15 115.08 106.21 114.4 107.05 113.56C107.89 112.72 108.59 111.64 109.15 110.32L110.65 106.78L110.47 109.72L97.2703 78.9998H105.25L114.73 102.64H112.99L122.53 78.9998H130.09L116.29 110.98C115.37 113.14 114.37 114.92 113.29 116.32C112.21 117.76 111.05 118.9 109.81 119.74C108.57 120.62 107.21 121.3 105.73 121.78C104.25 122.26 102.63 122.64 100.87 122.92Z" fill="#FF7B2C"/>
</svg>
