<svg width="252" height="64" viewBox="0 0 252 64" fill="none" xmlns="http://www.w3.org/2000/svg">
<path d="M-0.000144333 47.9404V0.000426769H31.0079V5.16843H6.11986V21.0124H29.4439V26.1804H6.11986V42.7724H31.0079V47.9404H-0.000144333ZM52.0204 48.5524C49.0284 48.5524 46.3991 47.8498 44.1324 46.4444C41.8657 45.0391 40.0977 42.9991 38.8284 40.3244C37.5591 37.6498 36.9244 34.4764 36.9244 30.8044C36.9244 27.1324 37.5591 23.9818 38.8284 21.3524C40.0977 18.6778 41.8657 16.6378 44.1324 15.2324C46.3991 13.8271 49.0284 13.1244 52.0204 13.1244C55.0577 13.1244 57.6871 13.8951 59.9084 15.4364C62.1751 16.9324 63.6711 18.9951 64.3964 21.6244H63.5804L64.3284 13.7364H70.3124C70.1764 15.0964 70.0404 16.4564 69.9044 17.8164C69.8137 19.1764 69.7684 20.5138 69.7684 21.8284V47.9404H63.5804V40.1204H64.3284C63.6031 42.7044 62.1071 44.7671 59.8404 46.3084C57.6191 47.8044 55.0124 48.5524 52.0204 48.5524ZM53.4484 43.6564C56.5311 43.6564 59.0017 42.5684 60.8604 40.3924C62.7191 38.2164 63.6484 35.0204 63.6484 30.8044C63.6484 26.5884 62.7191 23.4151 60.8604 21.2844C59.0017 19.1538 56.5311 18.0884 53.4484 18.0884C50.3657 18.0884 47.8724 19.1538 45.9684 21.2844C44.1097 23.4151 43.1804 26.5884 43.1804 30.8044C43.1804 35.0204 44.1097 38.2164 45.9684 40.3924C47.8271 42.5684 50.3204 43.6564 53.4484 43.6564ZM92.9203 48.5524C89.3389 48.5524 86.6189 47.5778 84.7603 45.6284C82.9469 43.6338 82.0403 40.6418 82.0403 36.6524V18.4964H75.3763V13.7364H82.0403V4.55643L88.2283 2.85643V13.7364H97.8843V18.4964H88.2283V36.1084C88.2283 38.7378 88.6816 40.6191 89.5883 41.7524C90.5403 42.8404 91.9003 43.3844 93.6683 43.3844C94.5749 43.3844 95.3456 43.3164 95.9803 43.1804C96.6603 42.9991 97.2723 42.7951 97.8163 42.5684V47.6684C97.1363 47.9404 96.3429 48.1444 95.4363 48.2804C94.5749 48.4618 93.7363 48.5524 92.9203 48.5524Z" fill="white"/>
<path d="M104.511 47.9404V0.000426769H136.811V6.86843H112.943V20.1284H135.247V27.0644H112.943V41.0044H136.811V47.9404H104.511ZM157.2 48.6204C154.208 48.6204 151.579 47.9178 149.312 46.5124C147.045 45.0618 145.277 42.9991 144.008 40.3244C142.739 37.6498 142.104 34.4538 142.104 30.7364C142.104 27.0191 142.739 23.8458 144.008 21.2164C145.277 18.5418 147.045 16.5018 149.312 15.0964C151.579 13.6458 154.208 12.9204 157.2 12.9204C160.101 12.9204 162.64 13.6458 164.816 15.0964C167.037 16.5018 168.511 18.4058 169.236 20.8084H168.488L169.236 13.6004H177.396C177.26 15.0058 177.124 16.4338 176.988 17.8844C176.897 19.3351 176.852 20.7631 176.852 22.1684V47.9404H168.42L168.352 40.8684H169.168C168.443 43.2258 166.969 45.1071 164.748 46.5124C162.527 47.9178 160.011 48.6204 157.2 48.6204ZM159.58 42.0924C162.255 42.0924 164.408 41.1631 166.04 39.3044C167.672 37.4004 168.488 34.5444 168.488 30.7364C168.488 26.9284 167.672 24.0951 166.04 22.2364C164.408 20.3778 162.255 19.4484 159.58 19.4484C156.905 19.4484 154.752 20.3778 153.12 22.2364C151.488 24.0951 150.672 26.9284 150.672 30.7364C150.672 34.5444 151.465 37.4004 153.052 39.3044C154.684 41.1631 156.86 42.0924 159.58 42.0924ZM198.348 48.6204C195.401 48.6204 192.681 48.2804 190.188 47.6004C187.74 46.8751 185.677 45.8778 184 44.6084L186.38 38.8964C188.103 40.0751 190.007 40.9818 192.092 41.6164C194.177 42.2511 196.285 42.5684 198.416 42.5684C200.683 42.5684 202.36 42.1831 203.448 41.4124C204.581 40.6418 205.148 39.5991 205.148 38.2844C205.148 37.2418 204.785 36.4258 204.06 35.8364C203.38 35.2018 202.269 34.7258 200.728 34.4084L193.928 33.1164C191.027 32.4818 188.805 31.3938 187.264 29.8524C185.768 28.3111 185.02 26.2938 185.02 23.8004C185.02 21.6698 185.587 19.7884 186.72 18.1564C187.899 16.5244 189.553 15.2551 191.684 14.3484C193.86 13.3964 196.399 12.9204 199.3 12.9204C201.839 12.9204 204.219 13.2604 206.44 13.9404C208.707 14.6204 210.611 15.6404 212.152 17.0004L209.704 22.5084C208.299 21.3751 206.689 20.4911 204.876 19.8564C203.063 19.2218 201.295 18.9044 199.572 18.9044C197.215 18.9044 195.492 19.3351 194.404 20.1964C193.316 21.0124 192.772 22.0778 192.772 23.3924C192.772 24.3898 193.089 25.2284 193.724 25.9084C194.404 26.5431 195.447 27.0191 196.852 27.3364L203.652 28.6284C206.689 29.2178 208.979 30.2604 210.52 31.7564C212.107 33.2071 212.9 35.2018 212.9 37.7404C212.9 40.0071 212.288 41.9564 211.064 43.5884C209.84 45.2204 208.14 46.4671 205.964 47.3284C203.788 48.1898 201.249 48.6204 198.348 48.6204ZM218.83 63.3764L216.858 56.6444C218.989 56.1911 220.78 55.6698 222.23 55.0804C223.681 54.4911 224.882 53.7204 225.834 52.7684C226.786 51.8164 227.58 50.5924 228.214 49.0964L229.914 45.0844L229.71 48.4164L214.75 13.6004H223.794L234.538 40.3924H232.566L243.378 13.6004H251.946L236.306 49.8444C235.264 52.2924 234.13 54.3098 232.906 55.8964C231.682 57.5284 230.368 58.8204 228.962 59.7724C227.557 60.7698 226.016 61.5404 224.338 62.0844C222.661 62.6284 220.825 63.0591 218.83 63.3764Z" fill="#FF7B2C"/>
</svg>
