<svg width="131" height="123" viewBox="0 0 131 123" fill="none" xmlns="http://www.w3.org/2000/svg">
<path d="M0.479824 42.2998V-0.000197887H27.8398V4.5598H5.87983V18.5398H26.4598V23.0998H5.87983V37.7398H27.8398V42.2998H0.479824ZM46.3803 42.8398C43.7403 42.8398 41.4203 42.2198 39.4203 40.9798C37.4203 39.7398 35.8603 37.9398 34.7403 35.5798C33.6203 33.2198 33.0603 30.4198 33.0603 27.1798C33.0603 23.9398 33.6203 21.1598 34.7403 18.8398C35.8603 16.4798 37.4203 14.6798 39.4203 13.4398C41.4203 12.1998 43.7403 11.5798 46.3803 11.5798C49.0603 11.5798 51.3803 12.2598 53.3403 13.6198C55.3403 14.9398 56.6603 16.7598 57.3003 19.0798H56.5803L57.2403 12.1198H62.5203C62.4003 13.3198 62.2803 14.5198 62.1603 15.7198C62.0803 16.9198 62.0403 18.0998 62.0403 19.2598V42.2998H56.5803V35.3998H57.2403C56.6003 37.6798 55.2803 39.4998 53.2803 40.8598C51.3203 42.1798 49.0203 42.8398 46.3803 42.8398ZM47.6403 38.5198C50.3603 38.5198 52.5403 37.5598 54.1803 35.6398C55.8203 33.7198 56.6403 30.8998 56.6403 27.1798C56.6403 23.4598 55.8203 20.6598 54.1803 18.7798C52.5403 16.8998 50.3603 15.9598 47.6403 15.9598C44.9203 15.9598 42.7203 16.8998 41.0403 18.7798C39.4003 20.6598 38.5803 23.4598 38.5803 27.1798C38.5803 30.8998 39.4003 33.7198 41.0403 35.6398C42.6803 37.5598 44.8803 38.5198 47.6403 38.5198ZM82.4684 42.8398C79.3084 42.8398 76.9084 41.9798 75.2684 40.2598C73.6684 38.4998 72.8684 35.8598 72.8684 32.3398V16.3198H66.9884V12.1198H72.8684V4.0198L78.3284 2.5198V12.1198H86.8484V16.3198H78.3284V31.8598C78.3284 34.1798 78.7284 35.8398 79.5284 36.8398C80.3684 37.7998 81.5684 38.2798 83.1284 38.2798C83.9284 38.2798 84.6084 38.2198 85.1684 38.0998C85.7684 37.9398 86.3084 37.7598 86.7884 37.5598V42.0598C86.1884 42.2998 85.4884 42.4798 84.6884 42.5998C83.9284 42.7598 83.1884 42.8398 82.4684 42.8398Z" fill="#EAEAEF"/>
<path d="M-0.000175685 109.3V66.9998H28.4998V73.0598H7.43982V84.7598H27.1198V90.8798H7.43982V103.18H28.4998V109.3H-0.000175685ZM46.4904 109.9C43.8504 109.9 41.5304 109.28 39.5304 108.04C37.5304 106.76 35.9704 104.94 34.8504 102.58C33.7304 100.22 33.1704 97.3998 33.1704 94.1198C33.1704 90.8398 33.7304 88.0398 34.8504 85.7198C35.9704 83.3598 37.5304 81.5598 39.5304 80.3198C41.5304 79.0398 43.8504 78.3998 46.4904 78.3998C49.0505 78.3998 51.2905 79.0398 53.2105 80.3198C55.1705 81.5598 56.4705 83.2398 57.1105 85.3598H56.4505L57.1105 78.9998H64.3104C64.1905 80.2398 64.0705 81.4998 63.9505 82.7798C63.8705 84.0598 63.8305 85.3198 63.8305 86.5598V109.3H56.3905L56.3305 103.06H57.0504C56.4104 105.14 55.1104 106.8 53.1504 108.04C51.1905 109.28 48.9705 109.9 46.4904 109.9ZM48.5904 104.14C50.9505 104.14 52.8505 103.32 54.2904 101.68C55.7305 99.9998 56.4505 97.4798 56.4505 94.1198C56.4505 90.7598 55.7305 88.2598 54.2904 86.6198C52.8505 84.9798 50.9505 84.1598 48.5904 84.1598C46.2304 84.1598 44.3304 84.9798 42.8904 86.6198C41.4504 88.2598 40.7304 90.7598 40.7304 94.1198C40.7304 97.4798 41.4304 99.9998 42.8304 101.68C44.2704 103.32 46.1904 104.14 48.5904 104.14ZM82.7975 109.9C80.1975 109.9 77.7975 109.6 75.5975 109C73.4375 108.36 71.6175 107.48 70.1375 106.36L72.2375 101.32C73.7575 102.36 75.4375 103.16 77.2775 103.72C79.1175 104.28 80.9775 104.56 82.8575 104.56C84.8575 104.56 86.3375 104.22 87.2975 103.54C88.2975 102.86 88.7975 101.94 88.7975 100.78C88.7975 99.8598 88.4775 99.1398 87.8375 98.6198C87.2375 98.0598 86.2575 97.6398 84.8975 97.3598L78.8975 96.2198C76.3375 95.6598 74.3775 94.6998 73.0175 93.3398C71.6975 91.9798 71.0375 90.1998 71.0375 87.9998C71.0375 86.1198 71.5375 84.4598 72.5375 83.0198C73.5775 81.5798 75.0375 80.4598 76.9175 79.6598C78.8375 78.8198 81.0775 78.3998 83.6375 78.3998C85.8775 78.3998 87.9775 78.6998 89.9375 79.2998C91.9375 79.8998 93.6175 80.7998 94.9775 81.9998L92.8175 86.8598C91.5775 85.8598 90.1575 85.0798 88.5575 84.5198C86.9575 83.9598 85.3975 83.6798 83.8775 83.6798C81.7975 83.6798 80.2775 84.0598 79.3175 84.8198C78.3575 85.5398 77.8775 86.4798 77.8775 87.6398C77.8775 88.5198 78.1575 89.2598 78.7175 89.8598C79.3175 90.4198 80.2375 90.8398 81.4775 91.1198L87.4775 92.2598C90.1575 92.7798 92.1775 93.6998 93.5375 95.0198C94.9375 96.2998 95.6375 98.0598 95.6375 100.3C95.6375 102.3 95.0975 104.02 94.0175 105.46C92.9375 106.9 91.4375 108 89.5175 108.76C87.5975 109.52 85.3575 109.9 82.7975 109.9ZM100.87 122.92L99.1301 116.98C101.01 116.58 102.59 116.12 103.87 115.6C105.15 115.08 106.21 114.4 107.05 113.56C107.89 112.72 108.59 111.64 109.15 110.32L110.65 106.78L110.47 109.72L97.2701 78.9998H105.25L114.73 102.64H112.99L122.53 78.9998H130.09L116.29 110.98C115.37 113.14 114.37 114.92 113.29 116.32C112.21 117.76 111.05 118.9 109.81 119.74C108.57 120.62 107.21 121.3 105.73 121.78C104.25 122.26 102.63 122.64 100.87 122.92Z" fill="#FF7B2C"/>
</svg>
