<svg width="252" height="64" viewBox="0 0 252 64" fill="none" xmlns="http://www.w3.org/2000/svg">
<path d="M-2.22623e-05 47.9399V-6.1512e-05H31.008V5.16794H6.11998V21.0119H29.444V26.1799H6.11998V42.7719H31.008V47.9399H-2.22623e-05ZM52.0205 48.5519C49.0285 48.5519 46.3992 47.8493 44.1325 46.4439C41.8658 45.0386 40.0978 42.9986 38.8285 40.3239C37.5592 37.6493 36.9245 34.4759 36.9245 30.8039C36.9245 27.1319 37.5592 23.9813 38.8285 21.3519C40.0978 18.6773 41.8658 16.6373 44.1325 15.2319C46.3992 13.8266 49.0285 13.1239 52.0205 13.1239C55.0578 13.1239 57.6872 13.8946 59.9085 15.4359C62.1752 16.9319 63.6712 18.9946 64.3965 21.6239H63.5805L64.3285 13.7359H70.3125C70.1765 15.0959 70.0405 16.4559 69.9045 17.8159C69.8138 19.1759 69.7685 20.5133 69.7685 21.8279V47.9399H63.5805V40.1199H64.3285C63.6032 42.7039 62.1072 44.7666 59.8405 46.3079C57.6192 47.8039 55.0125 48.5519 52.0205 48.5519ZM53.4485 43.6559C56.5312 43.6559 59.0018 42.5679 60.8605 40.3919C62.7192 38.2159 63.6485 35.0199 63.6485 30.8039C63.6485 26.5879 62.7192 23.4146 60.8605 21.2839C59.0018 19.1533 56.5312 18.0879 53.4485 18.0879C50.3658 18.0879 47.8725 19.1533 45.9685 21.2839C44.1098 23.4146 43.1805 26.5879 43.1805 30.8039C43.1805 35.0199 44.1098 38.2159 45.9685 40.3919C47.8272 42.5679 50.3205 43.6559 53.4485 43.6559ZM92.9204 48.5519C89.3391 48.5519 86.6191 47.5773 84.7604 45.6279C82.9471 43.6333 82.0404 40.6413 82.0404 36.6519V18.4959H75.3764V13.7359H82.0404V4.55594L88.2284 2.85594V13.7359H97.8844V18.4959H88.2284V36.1079C88.2284 38.7373 88.6817 40.6186 89.5884 41.7519C90.5404 42.8399 91.9004 43.3839 93.6684 43.3839C94.5751 43.3839 95.3457 43.3159 95.9804 43.1799C96.6604 42.9986 97.2724 42.7946 97.8164 42.5679V47.6679C97.1364 47.9399 96.3431 48.1439 95.4364 48.2799C94.5751 48.4613 93.7364 48.5519 92.9204 48.5519Z" fill="#4A4A6A"/>
<path d="M104.511 47.9399V-6.1512e-05H136.811V6.86794H112.943V20.1279H135.247V27.0639H112.943V41.0039H136.811V47.9399H104.511ZM157.2 48.6199C154.208 48.6199 151.579 47.9173 149.312 46.5119C147.045 45.0613 145.277 42.9986 144.008 40.3239C142.739 37.6493 142.104 34.4533 142.104 30.7359C142.104 27.0186 142.739 23.8453 144.008 21.2159C145.277 18.5413 147.045 16.5013 149.312 15.0959C151.579 13.6453 154.208 12.9199 157.2 12.9199C160.101 12.9199 162.64 13.6453 164.816 15.0959C167.037 16.5013 168.511 18.4053 169.236 20.8079H168.488L169.236 13.5999H177.396C177.26 15.0053 177.124 16.4333 176.988 17.8839C176.897 19.3346 176.852 20.7626 176.852 22.1679V47.9399H168.42L168.352 40.8679H169.168C168.443 43.2253 166.969 45.1066 164.748 46.5119C162.527 47.9173 160.011 48.6199 157.2 48.6199ZM159.58 42.0919C162.255 42.0919 164.408 41.1626 166.04 39.3039C167.672 37.3999 168.488 34.5439 168.488 30.7359C168.488 26.9279 167.672 24.0946 166.04 22.2359C164.408 20.3773 162.255 19.4479 159.58 19.4479C156.905 19.4479 154.752 20.3773 153.12 22.2359C151.488 24.0946 150.672 26.9279 150.672 30.7359C150.672 34.5439 151.465 37.3999 153.052 39.3039C154.684 41.1626 156.86 42.0919 159.58 42.0919ZM198.348 48.6199C195.401 48.6199 192.681 48.2799 190.188 47.5999C187.74 46.8746 185.677 45.8773 184 44.6079L186.38 38.8959C188.103 40.0746 190.007 40.9813 192.092 41.6159C194.177 42.2506 196.285 42.5679 198.416 42.5679C200.683 42.5679 202.36 42.1826 203.448 41.4119C204.581 40.6413 205.148 39.5986 205.148 38.2839C205.148 37.2413 204.785 36.4253 204.06 35.8359C203.38 35.2013 202.269 34.7253 200.728 34.4079L193.928 33.1159C191.027 32.4813 188.805 31.3933 187.264 29.8519C185.768 28.3106 185.02 26.2933 185.02 23.7999C185.02 21.6693 185.587 19.7879 186.72 18.1559C187.899 16.5239 189.553 15.2546 191.684 14.3479C193.86 13.3959 196.399 12.9199 199.3 12.9199C201.839 12.9199 204.219 13.2599 206.44 13.9399C208.707 14.6199 210.611 15.6399 212.152 16.9999L209.704 22.5079C208.299 21.3746 206.689 20.4906 204.876 19.8559C203.063 19.2213 201.295 18.9039 199.572 18.9039C197.215 18.9039 195.492 19.3346 194.404 20.1959C193.316 21.0119 192.772 22.0773 192.772 23.3919C192.772 24.3893 193.089 25.2279 193.724 25.9079C194.404 26.5426 195.447 27.0186 196.852 27.3359L203.652 28.6279C206.689 29.2173 208.979 30.2599 210.52 31.7559C212.107 33.2066 212.9 35.2013 212.9 37.7399C212.9 40.0066 212.288 41.9559 211.064 43.5879C209.84 45.2199 208.14 46.4666 205.964 47.3279C203.788 48.1893 201.249 48.6199 198.348 48.6199ZM218.83 63.3759L216.858 56.6439C218.989 56.1906 220.78 55.6693 222.23 55.0799C223.681 54.4906 224.882 53.7199 225.834 52.7679C226.786 51.8159 227.58 50.5919 228.214 49.0959L229.914 45.0839L229.71 48.4159L214.75 13.5999H223.794L234.538 40.3919H232.566L243.378 13.5999H251.946L236.306 49.8439C235.264 52.2919 234.13 54.3093 232.906 55.8959C231.682 57.5279 230.368 58.8199 228.962 59.7719C227.557 60.7693 226.016 61.5399 224.338 62.0839C222.661 62.6279 220.825 63.0586 218.83 63.3759Z" fill="#FF7B2C"/>
</svg>
